<svg xmlns="http://www.w3.org/2000/svg" width="16.028" height="16.111" viewBox="0 0 16.028 16.111">
    <path id="ban"
        d="M13.693,8.012V7.972a5.515,5.515,0,0,0-.921-3.059l.013.021L4.917,12.791A5.527,5.527,0,0,0,8,13.72h.036a5.481,5.481,0,0,0,2.223-.468l-.035.014a5.677,5.677,0,0,0,3.472-5.225v-.03h0ZM3.269,11.132l7.879-7.868a5.429,5.429,0,0,0-3.083-.95h-.09a5.525,5.525,0,0,0-2.832.776l.025-.014a5.718,5.718,0,0,0-1.884,8.077l-.013-.021Zm12.76-3.12v.023a7.869,7.869,0,0,1-.657,3.157l.02-.051a7.988,7.988,0,0,1-14.735.052l-.019-.052A7.874,7.874,0,0,1,0,8.014a7.975,7.975,0,0,1,.657-3.18l-.02.052a7.988,7.988,0,0,1,14.735-.052l.019.052a7.736,7.736,0,0,1,.637,3.1v.027h0Z"
        transform="translate(-0.001 0.042)" />
</svg>