<svg xmlns="http://www.w3.org/2000/svg" width="12.876" height="16.111" viewBox="0 0 12.876 16.111">
	<g id="delete" transform="translate(-48)">
		<path id="Tracé_77" data-name="Tracé 77"
			d="M59.886,3.075H58.4V1.025A1.008,1.008,0,0,0,57.41,0H51.467a1.008,1.008,0,0,0-.99,1.025v2.05H48.991A1.008,1.008,0,0,0,48,4.1V5.126H60.876V4.1A1.008,1.008,0,0,0,59.886,3.075Zm-7.429,0V2.05h3.962V3.075Z"
			fill="#fff" />
		<path id="Tracé_78" data-name="Tracé 78"
			d="M80,201.227a1,1,0,0,0,.984,1.025h8.858a1,1,0,0,0,.984-1.025h0V192H80Zm7.381-6.664a.493.493,0,1,1,.984,0v5.126a.493.493,0,1,1-.984,0Zm-2.46,0a.493.493,0,1,1,.984,0v5.126a.493.493,0,1,1-.984,0Zm-2.46,0a.493.493,0,1,1,.984,0v5.126a.493.493,0,1,1-.984,0Z"
			transform="translate(-30.975 -186.14)" fill="#fff" />
	</g>
</svg>