<svg xmlns="http://www.w3.org/2000/svg" width="34.898" height="43" viewBox="0 0 34.898 43">
    <g id="bell-svgrepo-com" transform="translate(-48.233)">
        <path id="Tracé_68" data-name="Tracé 68" d="M199.006,455h9.574a4.787,4.787,0,1,1-9.574,0Z"
            transform="translate(-138.11 -416.786)" fill="#f7b239" />
        <path id="Tracé_69" data-name="Tracé 69" d="M199.006,455h9.574a4.787,4.787,0,1,1-9.574,0Z"
            transform="translate(-138.11 -416.786)" fill="#4d4d4d" opacity="0.25" />
        <path id="Tracé_70" data-name="Tracé 70"
            d="M233.128,8.956h0c-.745-.155-1.517,3.863-2.308,3.863s-1.563-4.019-2.308-3.863V2.308a2.308,2.308,0,0,1,4.616,0V8.956Z"
            transform="translate(-165.138 0)" fill="#ff473f" />
        <path id="Tracé_71" data-name="Tracé 71"
            d="M98.475,130.279l-15.687,2.179-16.111-2.179h0a10.653,10.653,0,0,1,2.308-6.617,10.638,10.638,0,0,0,2.308-6.617v-1.931a11.284,11.284,0,1,1,22.568,0v1.931a10.653,10.653,0,0,0,2.308,6.617A10.636,10.636,0,0,1,98.475,130.279Z"
            transform="translate(-16.893 -95.11)" fill="#f7b239" />
        <path id="Tracé_72" data-name="Tracé 72"
            d="M82.592,419.3a1.838,1.838,0,0,1-1.3,3.139H50.073a1.839,1.839,0,1,1,0-3.678h31.22a1.835,1.835,0,0,1,1.3.539Z"
            transform="translate(0 -383.588)" fill="#ff473f" />
        <g id="Groupe_38" data-name="Groupe 38" transform="translate(62.798 8.72)">
            <path id="Tracé_73" data-name="Tracé 73"
                d="M361.884,419.3a1.835,1.835,0,0,0-1.3-.539h-7.453a1.835,1.835,0,0,1,1.3.539,1.838,1.838,0,0,1-1.3,3.139h7.453a1.838,1.838,0,0,0,1.3-3.139Z"
                transform="translate(-342.091 -392.308)" fill="#4d4d4d" opacity="0.25" />
            <path id="Tracé_74" data-name="Tracé 74"
                d="M238.136,123.662a10.653,10.653,0,0,1-2.308-6.617v-1.931a11.291,11.291,0,0,0-13.592-11.047c-.194.04-.385.087-.575.137a11.285,11.285,0,0,1,8.4,10.91v1.931a10.653,10.653,0,0,0,2.308,6.617,10.636,10.636,0,0,1,2.308,6.617h5.767A10.636,10.636,0,0,0,238.136,123.662Z"
                transform="translate(-221.661 -103.83)" fill="#4d4d4d" opacity="0.25" />
        </g>
    </g>
</svg>