<svg id="next-svgrepo-com" xmlns="http://www.w3.org/2000/svg" width="270.612" height="483.001"
    viewBox="0 0 270.612 483.001">
    <g id="Groupe_69" data-name="Groupe 69" transform="translate(0)">
        <path id="Tracé_80" data-name="Tracé 80"
            d="M360.606,479.146c-29.3-14.7-59.1-38.2-87.1-64.4-54.3-51-109.2-101.2-161.7-154.5l-.2-.2a18.8,18.8,0,0,1,.2-26.6c12.8-12.6,25.8-25.2,39-37.5,7.9-8.4,15.7-16.8,23.6-25.1,50.4-52.7,101.6-104.6,155.8-153,15.4-13.8,30.8-22.6,36.1-15.1,4.9,6.8-1.2,21.5-15.5,37.2-25.7,28.1-51.4,56.6-78.6,83.4-41.9,41.4-84.9,81.7-127.4,122.4,79.4,67,150,145.5,225.4,217.8,3.6,3.4,6.6,11.4,6.6,14.9C376.806,485.146,369.406,483.646,360.606,479.146Z"
            transform="translate(-106.194 0)" />
    </g>
</svg>