<svg xmlns="http://www.w3.org/2000/svg" width="16.029" height="15.99" viewBox="0 0 16.029 15.99">
	<g id="unban" transform="translate(0 -0.596)">
		<g id="Groupe_45" data-name="Groupe 45" transform="translate(0 0.596)">
			<path id="Tracé_75" data-name="Tracé 75"
				d="M4,12.747a5.576,5.576,0,0,1-1.434-2.052A5.632,5.632,0,0,1,3.728,4.646L5.2,6.122a.151.151,0,0,0,.247-.1L6.258.747A.131.131,0,0,0,6.108.6L.827,1.4a.151.151,0,0,0-.1.247l1.48,1.48a7.764,7.764,0,0,0,5.724,13.2l.332-2.169A5.634,5.634,0,0,1,4,12.747Z"
				transform="translate(0 -0.596)" />
			<path id="Tracé_76" data-name="Tracé 76"
				d="M244.8,21.689a7.764,7.764,0,0,0-5.724-13.2l-.332,2.169a5.638,5.638,0,0,1,4.267,1.411,5.576,5.576,0,0,1,1.434,2.052,5.632,5.632,0,0,1-1.164,6.049L241.8,18.7a.151.151,0,0,0-.247.1l-.807,5.278a.131.131,0,0,0,.15.15l5.281-.806a.152.152,0,0,0,.1-.247Z"
				transform="translate(-230.977 -8.234)" />
		</g>
	</g>
</svg>